<svg width="68" height="68" viewBox="0 0 68 68" fill="none" xmlns="http://www.w3.org/2000/svg">
<path d="M37.75 4V14C37.75 14.9946 37.3549 15.9484 36.6516 16.6517C35.9484 17.3549 34.9946 17.75 34 17.75C33.0054 17.75 32.0516 17.3549 31.3483 16.6517C30.6451 15.9484 30.25 14.9946 30.25 14V4C30.25 3.00544 30.6451 2.05161 31.3483 1.34835C32.0516 0.645088 33.0054 0.25 34 0.25C34.9946 0.25 35.9484 0.645088 36.6516 1.34835C37.3549 2.05161 37.75 3.00544 37.75 4V4ZM64 30.25H54C53.0054 30.25 52.0516 30.6451 51.3484 31.3483C50.6451 32.0516 50.25 33.0054 50.25 34C50.25 34.9946 50.6451 35.9484 51.3484 36.6516C52.0516 37.3549 53.0054 37.75 54 37.75H64C64.9946 37.75 65.9484 37.3549 66.6516 36.6516C67.3549 35.9484 67.75 34.9946 67.75 34C67.75 33.0054 67.3549 32.0516 66.6516 31.3483C65.9484 30.6451 64.9946 30.25 64 30.25V30.25ZM50.7812 45.5C50.0623 44.9016 49.1456 44.5934 48.2112 44.6361C47.2767 44.6787 46.392 45.0691 45.7305 45.7305C45.0691 46.392 44.6787 47.2767 44.6361 48.2112C44.5934 49.1456 44.9016 50.0623 45.5 50.7812L52.5625 57.875C52.9116 58.2229 53.326 58.4986 53.7817 58.6863C54.2375 58.874 54.7258 58.97 55.2187 58.9687C56.2129 58.9644 57.1661 58.572 57.875 57.875C58.2246 57.5266 58.502 57.1126 58.6913 56.6568C58.8805 56.201 58.978 55.7123 58.978 55.2187C58.978 54.7252 58.8805 54.2365 58.6913 53.7807C58.502 53.3249 58.2246 52.9109 57.875 52.5625L50.7812 45.5ZM34 50.25C33.0054 50.25 32.0516 50.6451 31.3483 51.3484C30.6451 52.0516 30.25 53.0054 30.25 54V64C30.25 64.9946 30.6451 65.9484 31.3483 66.6516C32.0516 67.3549 33.0054 67.75 34 67.75C34.9946 67.75 35.9484 67.3549 36.6516 66.6516C37.3549 65.9484 37.75 64.9946 37.75 64V54C37.75 53.0054 37.3549 52.0516 36.6516 51.3484C35.9484 50.6451 34.9946 50.25 34 50.25ZM17.2188 45.5L10.125 52.5625C9.7754 52.9109 9.49801 53.3249 9.30874 53.7807C9.11947 54.2365 9.02204 54.7252 9.02204 55.2187C9.02204 55.7123 9.11947 56.201 9.30874 56.6568C9.49801 57.1126 9.7754 57.5266 10.125 57.875C10.8339 58.572 11.7871 58.9644 12.7812 58.9687C13.2742 58.97 13.7625 58.874 14.2183 58.6863C14.674 58.4986 15.0884 58.2229 15.4375 57.875L22.5 50.7812C23.0984 50.0623 23.4066 49.1456 23.3639 48.2112C23.3213 47.2767 22.9309 46.392 22.2695 45.7305C21.608 45.0691 20.7233 44.6787 19.7888 44.6361C18.8544 44.5934 17.9377 44.9016 17.2188 45.5V45.5ZM17.75 34C17.75 33.0054 17.3549 32.0516 16.6517 31.3483C15.9484 30.6451 14.9946 30.25 14 30.25H4C3.00544 30.25 2.05161 30.6451 1.34835 31.3483C0.645088 32.0516 0.25 33.0054 0.25 34C0.25 34.9946 0.645088 35.9484 1.34835 36.6516C2.05161 37.3549 3.00544 37.75 4 37.75H14C14.9946 37.75 15.9484 37.3549 16.6517 36.6516C17.3549 35.9484 17.75 34.9946 17.75 34ZM15.4375 10.125C15.0887 9.77618 14.6746 9.49947 14.2188 9.31069C13.763 9.12191 13.2746 9.02475 12.7812 9.02475C12.2879 9.02475 11.7995 9.12191 11.3437 9.31069C10.8879 9.49947 10.4738 9.77618 10.125 10.125C9.77618 10.4738 9.49947 10.8879 9.31069 11.3437C9.12191 11.7995 9.02475 12.2879 9.02475 12.7812C9.02475 13.2746 9.12191 13.763 9.31069 14.2188C9.49947 14.6746 9.77618 15.0887 10.125 15.4375L17.2188 22.5C17.9211 23.1965 18.8702 23.5874 19.8594 23.5874C20.8485 23.5874 21.7977 23.1965 22.5 22.5C22.8486 22.1543 23.1254 21.7429 23.3142 21.2897C23.5031 20.8365 23.6003 20.3504 23.6003 19.8594C23.6003 19.3684 23.5031 18.8822 23.3142 18.429C23.1254 17.9758 22.8486 17.5645 22.5 17.2188L15.4375 10.125Z" fill="#F8F8F8"/>
</svg>
