<svg width="206" height="52" viewBox="0 0 206 52" fill="none" xmlns="http://www.w3.org/2000/svg">
<path d="M0 38.3159V12.3159L12.2781 19.158V31.4738L23.1921 36.9475L34.106 31.4738V19.158L46.3841 12.3159V38.3159L23.1921 52.0001L0 38.3159Z" fill="#F8F8F8"/>
<path fill-rule="evenodd" clip-rule="evenodd" d="M6.82119 16.4211L0 12.3158L23.1921 0L46.3841 12.3158L39.5629 16.4211V35.5789L23.1921 45.1579L6.82119 35.5789V16.4211ZM39.5629 16.4211L34.106 20.5263L23.1921 13.6842L12.2781 20.5263L6.82119 16.4211V35.5789L23.1921 43.7895L39.5629 35.5789V16.4211Z" fill="url(#paint0_linear_45_48)"/>
<path d="M58.6623 36.9475V15.0527H62.755V32.8422H72.3046V36.9475H58.6623Z" fill="#F8F8F8"/>
<path d="M80.4901 36.9474C78.937 36.9474 77.6357 36.2059 76.3973 35.579C75.159 34.9523 74.3824 34.033 73.6689 32.8422C72.9552 31.6514 72.3046 30.4082 72.3046 28.7369C72.3046 27.0656 72.9552 25.8224 73.6689 24.6316C74.3824 23.4408 75.159 22.5215 76.3973 21.8948C77.6357 21.2679 78.937 20.5264 80.4901 20.5264C82.0433 20.5264 83.3445 21.2679 84.5828 21.8948C85.8211 22.5215 86.5977 23.4408 87.3112 24.6316C88.0248 25.8224 88.6755 27.0656 88.6755 28.7369C88.6755 30.4082 88.0248 31.6514 87.3112 32.8422C86.5977 34.033 85.8211 34.9523 84.5828 35.579C83.3445 36.2059 82.0433 36.9474 80.4901 36.9474ZM80.4901 32.8422C81.7074 32.8422 82.4211 33.6153 83.2185 32.8422C84.0162 32.0483 84.5828 30.1993 84.5828 28.7369C84.5828 27.2745 84.0162 25.4046 83.2185 24.6316C82.442 23.8378 81.7284 24.6316 80.4901 24.6316C79.2728 24.6316 78.5591 23.8378 77.7616 24.6316C76.964 25.4046 76.3973 27.2745 76.3973 28.7369C76.3973 30.1993 76.964 32.0483 77.7616 32.8422C78.5591 33.6153 79.2728 32.8422 80.4901 32.8422Z" fill="#F8F8F8"/>
<path d="M90.0397 28.7369C90.0397 27.1333 90.7557 25.7624 91.404 24.6316C92.0521 23.4804 93.0662 22.4909 94.1324 21.8948C95.2197 21.2779 95.5856 20.5264 96.8609 20.5264C98.2827 20.5264 100.222 21.4014 100.954 21.8948C101.685 22.3882 101.983 22.7287 102.318 23.2632V20.5264H106.411V38.3158C106.411 39.3643 105.674 40.4358 105.046 41.0527C104.419 41.6899 103.363 42.4211 102.318 42.4211H92.7682V39.6843H100.954C101.539 39.6843 102.318 38.9326 102.318 38.3158V34.2106C102.109 34.5395 101.33 35.2295 100.954 35.579C100.577 35.908 100.217 35.3528 99.5894 35.579C98.9622 35.8051 97.8227 36.9474 96.8609 36.9474C95.5856 36.9474 95.2197 36.1752 94.1324 35.579C93.0662 34.9623 92.0521 33.9728 91.404 32.8422C90.7557 31.6909 90.0397 30.3405 90.0397 28.7369ZM98.2252 32.8422C99.4377 32.8422 100.138 32.2344 100.954 31.4737C101.769 30.7131 102.318 30.1143 102.318 28.7369C102.318 27.3389 101.769 25.3717 100.954 24.6316C100.159 23.871 99.4587 23.2632 98.2252 23.2632C97.0124 23.2632 96.312 23.871 95.4967 24.6316C94.6813 25.3717 94.1324 27.3389 94.1324 28.7369C94.1324 30.1143 94.6813 30.7131 95.4967 31.4737C96.312 32.2344 97.0124 32.8422 98.2252 32.8422Z" fill="#F8F8F8"/>
<path d="M117.325 36.9474C115.771 36.9474 114.47 36.2059 113.232 35.579C111.993 34.9523 111.217 34.033 110.503 32.8422C109.79 31.6514 109.139 30.4082 109.139 28.7369C109.139 27.0656 109.79 25.8224 110.503 24.6316C111.217 23.4408 111.993 22.5215 113.232 21.8948C114.47 21.2679 115.771 20.5264 117.325 20.5264C118.878 20.5264 120.179 21.2679 121.417 21.8948C122.656 22.5215 123.432 23.4408 124.146 24.6316C124.859 25.8224 125.51 27.0656 125.51 28.7369C125.51 30.4082 124.859 31.6514 124.146 32.8422C123.432 34.033 122.656 34.9523 121.417 35.579C120.179 36.2059 118.878 36.9474 117.325 36.9474ZM117.325 32.8422C118.542 32.8422 119.256 33.6153 120.053 32.8422C120.851 32.0483 121.417 30.1993 121.417 28.7369C121.417 27.2745 120.851 25.4046 120.053 24.6316C119.276 23.8378 118.563 24.6316 117.325 24.6316C116.107 24.6316 115.394 23.8378 114.596 24.6316C113.799 25.4046 113.232 27.2745 113.232 28.7369C113.232 30.1993 113.799 32.0483 114.596 32.8422C115.394 33.6153 116.107 32.8422 117.325 32.8422Z" fill="#F8F8F8"/>
<path d="M125.51 36.9471V21.8945H130.967V36.9471H125.51ZM128.238 20.5261C127.475 20.5261 127.413 19.6074 126.874 19.1577C126.358 18.7079 125.51 18.5251 125.51 17.7892C125.51 17.0533 126.358 15.5022 126.874 15.0524C127.413 14.6027 127.475 15.0524 128.238 15.0524C129.024 15.0524 129.086 14.6027 129.603 15.0524C130.119 15.5022 130.967 17.0533 130.967 17.7892C130.967 18.5251 130.119 18.7079 129.603 19.1577C129.086 19.6074 129.024 20.5261 128.238 20.5261Z" fill="#F8F8F8"/>
<path d="M133.695 42.4211V20.5264H137.788V23.2632C138.143 22.667 138.398 22.3471 139.152 21.8948C139.905 21.4219 141.844 20.5264 143.245 20.5264C144.5 20.5264 144.908 21.2779 145.974 21.8948C147.04 22.4909 148.054 23.4597 148.702 24.6316C149.35 25.8034 150.066 27.0717 150.066 28.7369C150.066 30.4021 149.35 31.6704 148.702 32.8422C148.054 34.0141 147.04 34.9623 145.974 35.579C144.908 36.1752 144.5 36.9474 143.245 36.9474C142.303 36.9474 141.165 37.1735 140.517 36.9474C139.889 36.7418 139.549 35.908 139.152 35.579C138.775 35.2295 138.018 34.5601 137.788 34.2106V42.4211H133.695ZM141.881 32.8422C143.115 32.8422 143.815 32.2344 144.609 31.4737C145.424 30.6926 145.974 30.2171 145.974 28.7369C145.974 27.2567 145.424 25.3923 144.609 24.6316C143.794 23.8505 143.094 23.2632 141.881 23.2632C140.668 23.2632 139.967 23.8505 139.152 24.6316C138.337 25.3923 137.788 27.2567 137.788 28.7369C137.788 30.2171 138.337 30.6926 139.152 31.4737C139.967 32.2344 140.668 32.8422 141.881 32.8422Z" fill="#F8F8F8"/>
<path d="M158.252 36.9474C156.256 36.9474 155.435 36.4565 154.159 35.579C152.884 34.7015 151.699 33.1034 151.43 31.4737H155.523C155.667 32.2049 155.195 32.4243 155.523 32.8422C155.874 33.26 156.393 34.0225 156.887 34.2106C157.401 34.3777 157.655 34.2106 158.252 34.2106C159.156 34.2106 160.548 33.1555 160.98 32.8422C161.411 32.5079 160.98 31.9543 160.98 31.4737C160.98 30.9932 161.392 31.7245 160.98 31.4737C160.569 31.2021 159.158 30.2724 158.252 30.1053C157.181 29.8964 156.407 29.092 155.523 28.7369C154.639 28.3609 153.33 28.0161 152.795 27.3685C152.261 26.7207 151.43 27.0238 151.43 26.0001C151.43 24.4541 153.047 22.7096 154.159 21.8948C155.269 21.0591 156.442 20.5264 158.252 20.5264C159.96 20.5264 161.214 21.1218 162.344 21.8948C163.476 22.6678 164.722 23.3781 165.073 24.6316L160.98 26.0001C160.816 25.2062 160.131 24.9658 159.616 24.6316C159.122 24.2973 158.992 23.2632 158.252 23.2632C157.511 23.2632 157.279 24.36 156.887 24.6316C156.497 24.8824 155.523 24.172 155.523 24.6316C155.523 25.133 156.475 25.7493 156.887 26.0001C157.298 26.2298 157.552 27.2431 158.252 27.3685C159.404 27.5774 161.418 27.0133 162.344 27.3685C163.29 27.7028 163.173 28.0892 163.709 28.7369C164.264 29.3636 165.073 30.3873 165.073 31.4737C165.073 33.1034 164.882 34.6806 163.709 35.579C162.557 36.4565 160.206 36.9474 158.252 36.9474Z" fill="#F8F8F8"/>
<path d="M171.894 36.9472C170.686 36.9472 170.082 36.0963 169.166 35.5787C168.27 35.041 168.302 35.1461 167.801 34.2103C167.302 33.2745 166.437 31.3196 166.437 30.1051V21.8945H170.53V30.1051C170.53 31.2201 171.331 32.2845 171.894 32.8419C172.476 33.3995 172.195 34.2103 173.258 34.2103C174.466 34.2103 175.32 33.5984 175.987 32.8419C176.654 32.0654 177.351 31.4789 177.351 30.1051V21.8945H181.444V36.9472H177.351V34.2103C177.1 34.7081 176.675 35.1009 175.987 35.5787C175.299 36.0567 173.29 36.9472 171.894 36.9472Z" fill="#F8F8F8"/>
<path d="M184.172 36.9474V21.8948H188.265V23.2632C188.528 22.7654 189.022 22.2533 189.629 21.8948C190.237 21.5166 191.364 21.8948 192.358 21.8948C193.431 21.8948 194.437 21.4767 195.086 21.8948C195.735 22.293 196.105 23.9746 196.45 24.6316C196.796 23.9946 197.186 22.313 197.815 21.8948C198.443 21.4767 199.387 21.8948 200.543 21.8948C201.475 21.8948 202.522 21.4966 203.272 21.8948C204.042 22.273 204.189 23.8351 204.636 24.6316C205.101 25.4081 206 26.1737 206 27.3685V36.9474H201.907V27.3685C201.907 26.5521 202.333 26.3983 201.907 26.0001C201.481 25.582 199.949 24.6316 199.179 24.6316C198.308 24.6316 198.301 25.4426 197.815 26.0001C197.349 26.5376 196.45 27.7214 196.45 28.7369V36.9474H193.722V27.3685C193.722 26.5521 192.782 26.3983 192.358 26.0001C191.931 25.582 191.765 24.6316 190.993 24.6316C190.122 24.6316 188.752 25.4426 188.265 26.0001C187.798 26.5376 188.265 27.7214 188.265 28.7369V36.9474H184.172Z" fill="#F8F8F8"/>
<defs>
<linearGradient id="paint0_linear_45_48" x1="6.44223" y1="10.0351" x2="41.2303" y2="10.0351" gradientUnits="userSpaceOnUse">
<stop stop-color="#F2B62C"/>
<stop offset="0.307292" stop-color="#F86D31"/>
<stop offset="0.604167" stop-color="#159871"/>
<stop offset="1" stop-color="#084CAD"/>
</linearGradient>
</defs>
</svg>
