<svg width="58" height="58" viewBox="0 0 58 58" fill="none" xmlns="http://www.w3.org/2000/svg">
<path d="M22.75 0.25H4C3.00544 0.25 2.05161 0.645088 1.34835 1.34835C0.645088 2.05161 0.25 3.00544 0.25 4V22.75C0.25 23.7446 0.645088 24.6984 1.34835 25.4017C2.05161 26.1049 3.00544 26.5 4 26.5H22.75C23.7446 26.5 24.6984 26.1049 25.4017 25.4017C26.1049 24.6984 26.5 23.7446 26.5 22.75V4C26.5 3.00544 26.1049 2.05161 25.4017 1.34835C24.6984 0.645088 23.7446 0.25 22.75 0.25ZM19 19H7.75V7.75H19V19ZM54 0.25H35.25C34.2554 0.25 33.3016 0.645088 32.5984 1.34835C31.8951 2.05161 31.5 3.00544 31.5 4V22.75C31.5 23.7446 31.8951 24.6984 32.5984 25.4017C33.3016 26.1049 34.2554 26.5 35.25 26.5H54C54.9946 26.5 55.9484 26.1049 56.6516 25.4017C57.3549 24.6984 57.75 23.7446 57.75 22.75V4C57.75 3.00544 57.3549 2.05161 56.6516 1.34835C55.9484 0.645088 54.9946 0.25 54 0.25ZM50.25 19H39V7.75H50.25V19ZM22.75 31.5H4C3.00544 31.5 2.05161 31.8951 1.34835 32.5984C0.645088 33.3016 0.25 34.2554 0.25 35.25V54C0.25 54.9946 0.645088 55.9484 1.34835 56.6516C2.05161 57.3549 3.00544 57.75 4 57.75H22.75C23.7446 57.75 24.6984 57.3549 25.4017 56.6516C26.1049 55.9484 26.5 54.9946 26.5 54V35.25C26.5 34.2554 26.1049 33.3016 25.4017 32.5984C24.6984 31.8951 23.7446 31.5 22.75 31.5ZM19 50.25H7.75V39H19V50.25ZM54 31.5H35.25C34.2554 31.5 33.3016 31.8951 32.5984 32.5984C31.8951 33.3016 31.5 34.2554 31.5 35.25V54C31.5 54.9946 31.8951 55.9484 32.5984 56.6516C33.3016 57.3549 34.2554 57.75 35.25 57.75H54C54.9946 57.75 55.9484 57.3549 56.6516 56.6516C57.3549 55.9484 57.75 54.9946 57.75 54V35.25C57.75 34.2554 57.3549 33.3016 56.6516 32.5984C55.9484 31.8951 54.9946 31.5 54 31.5ZM50.25 50.25H39V39H50.25V50.25Z" fill="#F8F8F8"/>
</svg>
