<svg width="68" height="68" viewBox="0 0 68 68" fill="none" xmlns="http://www.w3.org/2000/svg">
<path fill-rule="evenodd" clip-rule="evenodd" d="M0.666626 34.0001C0.666626 15.6001 15.5666 0.666748 33.9666 0.666748C52.4 0.666748 67.3333 15.6001 67.3333 34.0001C67.3333 52.4001 52.4 67.3334 33.9666 67.3334C15.5666 67.3334 0.666626 52.4001 0.666626 34.0001ZM7.33329 34.0001C7.33329 48.7334 19.2666 60.6668 34 60.6668C48.7333 60.6668 60.6666 48.7334 60.6666 34.0001C60.6666 19.2667 48.7333 7.33342 34 7.33342C19.2666 7.33342 7.33329 19.2667 7.33329 34.0001ZM27.3333 25.6667C27.3333 28.4282 25.0947 30.6667 22.3333 30.6667C19.5719 30.6667 17.3333 28.4282 17.3333 25.6667C17.3333 22.9053 19.5719 20.6667 22.3333 20.6667C25.0947 20.6667 27.3333 22.9053 27.3333 25.6667ZM50.6666 25.6667C50.6666 28.4282 48.4281 30.6667 45.6666 30.6667C42.9052 30.6667 40.6666 28.4282 40.6666 25.6667C40.6666 22.9053 42.9052 20.6667 45.6666 20.6667C48.4281 20.6667 50.6666 22.9053 50.6666 25.6667ZM34 54.0001C41.6 54.0001 48.0666 48.4667 50.6666 40.6667H17.3333C19.9333 48.4667 26.4 54.0001 34 54.0001Z" fill="#F8F8F8"/>
</svg>
